<?xml version="1.0" encoding="UTF-8"?>
<svg width="93px" height="26px" viewBox="0 0 93 26" version="1.1" xmlns="http://www.w3.org/2000/svg" xmlns:xlink="http://www.w3.org/1999/xlink">
    <!-- Generator: Sketch 63.1 (92452) - https://sketch.com -->
    <title>Group 10</title>
    <desc>Created with Sketch.</desc>
    <defs>
        <polygon id="path-1" points="1.77635684e-15 0 92.1359455 0 92.1359455 25.599872 1.77635684e-15 25.599872"></polygon>
    </defs>
    <g id="Page-1" stroke="none" stroke-width="1" fill="none" fill-rule="evenodd" opacity="0.6">
        <g id="Desktop-HD-Copy-45" transform="translate(-683.000000, -47.000000)">
            <g id="Group-10" transform="translate(683.000000, 47.000000)">
                <g id="Group-3">
                    <mask id="mask-2" fill="white">
                        <use xlink:href="#path-1"></use>
                    </mask>
                    <g id="Clip-2"></g>
                    <path d="M90.1615427,19.669072 L90.1675427,19.681072 C87.4485427,23.567072 82.0945427,24.514072 78.2075427,21.796072 C74.3205427,19.077072 73.3745427,13.723072 76.0925427,9.83607199 C78.8105427,5.94907199 84.1655427,5.00307199 88.0525427,7.72107199 C88.4625427,8.00807199 88.8475427,8.33007199 89.2005427,8.68507199 C89.2895427,8.77007199 89.3735427,8.86007199 89.4515427,8.95607199 C90.4605427,10.059072 90.3895427,11.769072 89.2925427,12.783072 C88.7945427,13.245072 88.1395427,13.500072 87.4605427,13.498072 C86.7005427,13.492072 85.9775427,13.172072 85.4655427,12.611072 C85.4355427,12.579072 84.4195427,11.533072 83.1305427,11.583072 C81.3895427,11.607072 79.9815427,13.013072 79.9565427,14.754072 C79.9565427,16.506072 81.3765427,17.925072 83.1275427,17.926072 C84.1645427,17.926072 85.1355427,17.419072 85.7275427,16.568072 C86.6355427,15.380072 88.3345427,15.152072 89.5225427,16.060072 C90.6405427,16.913072 90.9195427,18.482072 90.1615427,19.669072 L90.1615427,19.669072 Z M72.6785427,20.567072 C72.7275427,22.064072 71.5555427,23.315072 70.0585427,23.365072 C68.5625427,23.415072 67.3105427,22.242072 67.2615427,20.746072 C67.2595427,20.687072 67.2595427,20.627072 67.2615427,20.567072 L67.2615427,10.921072 C67.3105427,9.42607199 68.5625427,8.25307199 70.0585427,8.30307199 C71.4855427,8.35007199 72.6315427,9.49507199 72.6785427,10.921072 L72.6785427,20.567072 Z M67.3585288,4.23607199 C67.4075427,2.74107199 68.6605427,1.56807199 70.1565427,1.61807199 C71.5835427,1.66507199 72.7285427,2.81107199 72.7755501,4.23607199 L72.7755501,4.31607199 C72.7785427,5.60207199 71.8795427,6.71307199 70.6215427,6.97707199 C70.3065427,7.05807199 70.1635427,7.01807199 69.9475427,7.01607199 C69.7675427,7.01507199 69.6735427,6.99507199 69.4415427,6.96707199 C68.2175427,6.67307199 67.3545427,5.57607199 67.3585288,4.31607199 L67.3585288,4.23607199 Z M62.9165427,13.938072 L62.9165427,20.433072 L62.9165427,20.442072 L62.9155427,20.446072 C62.8435427,22.639072 61.0685427,24.356072 58.8755427,24.356072 C58.8315427,24.356072 58.7875427,24.356072 58.7405427,24.355072 C56.6195427,24.284072 54.9025427,22.565072 54.8325427,20.438072 L54.8315427,20.398072 L54.8315427,13.930072 C54.6465427,13.867072 54.4665427,13.791072 54.2905427,13.701072 L54.2605427,13.686072 C54.1355427,13.617072 54.0115427,13.542072 53.8905427,13.462072 L53.6215427,13.614072 C53.0185427,13.953072 52.3345427,14.134072 51.6405427,14.137072 L51.3335427,14.137072 C51.2725427,14.135072 51.2135427,14.134072 51.1535427,14.134072 C50.7655427,14.134072 50.3705427,14.166072 49.9785427,14.230072 C49.5155427,14.367072 49.4675427,15.158072 49.4785427,15.622072 L49.4795427,15.654072 L49.4795427,20.057072 C49.5395427,22.273072 47.7865427,24.135072 45.5715427,24.207072 C45.5255427,24.209072 45.4795427,24.210072 45.4335427,24.210072 C44.4055427,24.210072 43.4265427,23.822072 42.6745427,23.118072 C42.4325427,22.893072 42.2225427,22.642072 42.0445427,22.368072 C41.2855427,23.403072 40.0645427,24.036072 38.7835427,24.039072 C37.9165427,24.039072 37.0795427,23.718072 36.4095427,23.133072 C35.3425427,23.767072 33.9735427,24.114072 32.5375427,24.114072 C32.4785427,24.115072 32.4195427,24.115072 32.3605427,24.115072 C29.9335427,24.115072 27.6395427,23.174072 25.8965427,21.465072 C24.1515427,19.753072 23.1655427,17.467072 23.1195427,15.029072 C23.0725427,12.560072 23.9925427,10.217072 25.7105427,8.43307199 C27.4285427,6.64907199 29.7335427,5.64107199 32.2035427,5.59407199 C32.2625427,5.59307199 32.3205427,5.59207199 32.3795427,5.59207199 C32.4375427,5.59207199 32.4965427,5.59307199 32.5445427,5.59407199 C33.9355427,5.59407199 35.0945427,5.92007199 36.1755427,6.62007199 C36.8925427,6.05407199 37.7915427,5.75607199 38.7865427,5.75607199 C40.0545427,5.76007199 41.2665427,6.38407199 42.0265427,7.40407199 C42.7655427,6.25207199 44.0645427,5.52207199 45.4265427,5.51907199 L45.4745427,5.51807199 C46.4105427,5.51807199 47.3155427,5.89907199 47.9845427,6.57007199 C48.8905427,6.06407199 49.8735427,5.77507199 50.7005427,5.77507199 L50.7015427,5.77507199 C50.7465427,5.77407199 50.7925427,5.77407199 50.8385427,5.77407199 C51.3735427,5.77407199 51.9085427,5.82907199 52.4245427,5.93707199 C52.9325427,6.03307199 53.4045427,6.23207199 53.8285427,6.52907199 L54.0395427,6.67707199 C54.0725427,6.65607199 54.1055427,6.63607199 54.1395427,6.61707199 C54.3625427,6.48507199 54.5985427,6.37607199 54.8445427,6.29107199 C54.8765427,5.31407199 55.2605427,4.38707199 55.9325427,3.66807199 C56.6715427,2.87907199 57.6725427,2.42507199 58.7525427,2.39007199 C58.7975427,2.38807199 58.8425427,2.38707199 58.8875427,2.38707199 C61.0785427,2.38707199 62.8515427,4.10307199 62.9275427,6.29307199 C64.5905427,6.86907199 65.6995427,8.47407199 65.6405427,10.247072 C65.5855427,11.931072 64.4975427,13.395072 62.9165427,13.938072 L62.9165427,13.938072 Z M20.7985427,18.413072 C18.8945427,21.433072 15.7735427,23.106072 11.9885427,23.106072 C6.06854265,23.106072 1.26954265,18.306072 1.27054249,12.387072 C1.27054249,6.46707199 6.06854265,1.66907199 11.9885427,1.66907199 C14.5865427,1.66907199 17.8485427,1.96407199 20.0445427,4.27807199 C21.0725427,5.35607199 21.0315427,7.06507199 19.9535427,8.09307199 C19.9505427,8.09607199 19.9465427,8.09907199 19.9435427,8.10307199 C19.5375427,8.49907199 18.9895427,8.71707199 18.4225427,8.70807199 C17.6565427,8.70807199 16.8525427,8.36507199 16.1675427,8.03407199 C14.4145427,7.18607199 13.3485427,7.06507199 12.5315427,7.06507199 L11.9765427,7.06507199 C9.04554265,7.26107199 6.82754265,9.79607199 7.02354265,12.727072 C7.20054265,15.386072 9.31754265,17.502072 11.9765427,17.680072 C13.2765427,17.680072 15.0675427,17.305072 16.1965427,15.543072 L13.4985427,15.543072 C13.3815427,15.560072 13.2625427,15.566072 13.1435427,15.565072 C11.6415427,15.563072 10.4265427,14.345072 10.4275427,12.843072 C10.4285427,11.343072 11.6435427,10.128072 13.1435427,10.126072 L17.5645427,10.126072 C18.9535427,10.126072 20.2235427,10.942072 20.9895427,12.302072 C22.0035427,14.232072 21.9315427,16.551072 20.7985427,18.413072 L20.7985427,18.413072 Z M91.9605427,19.545072 C92.1475427,18.916072 92.1885427,18.246072 92.0665427,17.588072 C91.8795427,16.499072 91.2635427,15.531072 90.3555427,14.899072 C90.1435427,14.749072 89.9175427,14.621072 89.6795427,14.518072 C89.9005427,14.377072 90.1095427,14.219072 90.3065427,14.045072 C92.0015427,12.486072 92.1135427,9.85007199 90.5575427,8.15207199 C90.4565427,8.04307199 90.3555427,7.94207199 90.2615427,7.84207199 C88.3805427,5.95007199 85.8195427,4.89107199 83.1515427,4.90107199 C79.3125427,4.90707199 75.8105427,7.09407199 74.1205427,10.540072 C73.9745427,9.45807199 73.4055427,8.47807199 72.5395427,7.81307199 C73.5815427,7.03307199 74.1965427,5.81007199 74.1995427,4.50907199 L74.1995427,4.40807199 C74.3485427,2.12807199 72.6225427,0.158071986 70.3425427,0.00907198569 C68.0615427,-0.140928014 66.0925427,1.58707199 65.9425427,3.86607199 C65.9315427,4.04707199 65.9315427,4.22807199 65.9425427,4.40807199 L65.9425427,4.48807199 C65.9395427,5.75807199 66.3865427,6.84707199 67.3555427,7.60607199 C67.1245427,7.70907199 66.8265427,7.89907199 66.5415427,8.24207199 C66.0935427,7.05807199 65.2295427,6.04907199 64.0805427,5.44207199 C63.6025427,2.88907199 61.3355427,1.06307199 58.7115427,1.14707199 C57.2995427,1.19307199 55.9905427,1.78707199 55.0245427,2.81807199 C54.4285427,3.45607199 53.9995427,4.23107199 53.7755427,5.07107199 C53.4235427,4.91007199 53.0525427,4.79107199 52.6695427,4.71807199 C52.0715427,4.59407199 51.4565427,4.53107199 50.8385427,4.53107199 C50.7885427,4.53107199 50.7375427,4.53107199 50.6905427,4.53207199 C49.8925427,4.53407199 49.0175427,4.73107199 48.1515427,5.10407199 C47.3595427,4.56807199 46.4135427,4.27407199 45.4735427,4.27407199 L45.4185427,4.27507199 C44.1755427,4.27707199 42.9265427,4.75707199 41.9645427,5.59407199 C41.0465427,4.89907199 39.9265427,4.51607199 38.7895427,4.51307199 C37.8215427,4.51307199 36.9295427,4.73107199 36.1335427,5.16407199 C35.0515427,4.61807199 33.8805427,4.35207199 32.5585427,4.35107199 C32.4505427,4.34907199 32.3095427,4.34907199 32.1805427,4.35107199 C29.3785427,4.40407199 26.7635427,5.54807199 24.8145427,7.57007199 C23.6405427,8.79007199 22.7985427,10.239072 22.3235427,11.812072 C22.3165427,11.801072 22.3095427,11.788072 22.3055427,11.778072 C21.8635427,10.962072 21.2355427,10.261072 20.4735427,9.73307199 C20.6495427,9.61107199 20.8175427,9.47807199 20.9745427,9.33107199 C22.6455427,7.75007199 22.7195427,5.11307199 21.1385427,3.44107199 C18.5405427,0.732071986 14.8925427,0.389071986 11.9945427,0.389071986 C5.26554265,0.494071986 -0.10445735,6.03307199 0.00154265018,12.762072 C0.10354265,19.343072 5.41354265,24.652072 11.9945427,24.755072 C16.2945427,24.755072 19.8575427,22.852072 22.0425427,19.388072 C22.1955427,19.146072 22.3335427,18.895072 22.4555427,18.635072 C22.4685427,18.666072 22.4805427,18.697072 22.4945427,18.729072 C22.5155427,18.681072 22.5365427,18.633072 22.5575427,18.585072 C23.0905427,19.987072 23.9245427,21.271072 25.0255427,22.353072 C27.0015427,24.291072 29.6065427,25.359072 32.3605427,25.359072 C32.4245427,25.359072 32.4865427,25.358072 32.5465427,25.357072 C33.8845427,25.356072 35.1795427,25.090072 36.3015427,24.586072 C37.0575427,25.042072 37.9135427,25.282072 38.7835427,25.282072 C39.9375427,25.279072 41.0705427,24.889072 41.9945427,24.179072 C42.9985427,25.041072 44.2885427,25.498072 45.6135427,25.450072 C48.5005427,25.356072 50.7925427,22.928072 50.7235427,20.044072 L50.7235427,15.638072 L50.7225427,15.590072 C50.7205427,15.522072 50.7205427,15.455072 50.7235427,15.394072 C50.9175427,15.379072 51.1095427,15.374072 51.3015427,15.380072 L51.6405427,15.380072 C52.3055427,15.377072 52.9725427,15.247072 53.5885427,15.004072 L53.5885427,20.418072 L53.5905427,20.479072 C53.6815427,23.257072 55.9265427,25.505072 58.7005427,25.597072 C58.7635427,25.599072 58.8195427,25.600072 58.8755427,25.600072 C61.7435427,25.600072 64.0635427,23.355072 64.1585427,20.479072 L64.1595427,14.739072 C64.8305427,14.367072 65.3985427,13.857072 65.8425427,13.260072 L65.8425427,20.759072 C65.7815427,23.062072 67.5985427,24.978072 69.8995427,25.039072 C72.2015427,25.100072 74.1175427,23.283072 74.1795427,20.981072 C74.1815427,20.907072 74.1815427,20.833072 74.1795427,20.759072 L74.1795427,19.441072 C76.6565427,24.407072 82.6895427,26.424072 87.6555427,23.947072 C88.7705427,23.391072 89.7675427,22.633072 90.6015427,21.717072 C91.3925427,20.872072 91.6005427,20.250072 91.9605427,19.545072 L91.9605427,19.545072 Z" id="Fill-1" fill="#FFFFFF" mask="url(#mask-2)"></path>
                </g>
                <path d="M35.2855427,14.869272 C35.2835427,16.390272 34.0455427,17.628272 32.5235427,17.628272 L32.5205427,17.628272 C30.9985427,17.626272 29.7615427,16.386272 29.7635402,14.863272 C29.7645427,13.342272 31.0025427,12.104272 32.5235427,12.104272 L32.5265427,12.104272 C34.0465427,12.106272 35.2835427,13.344272 35.2855427,14.863272 L35.2855427,14.869272 Z M38.7805427,7.34127199 C37.7285427,7.34127199 36.8525427,7.87427199 36.4965427,8.73227199 L36.4375427,8.87227199 L36.3285427,8.76727199 C35.1535427,7.63927199 34.0525427,7.17927199 32.5265427,7.17927199 C32.4765427,7.17827199 32.4285427,7.17727199 32.3795427,7.17727199 C32.3305427,7.17727199 32.2825427,7.17827199 32.2335427,7.17927199 C28.0015427,7.25927199 24.6235427,10.766272 24.7035427,14.999272 C24.7425427,17.050272 25.5775427,18.962272 27.0555427,20.385272 C28.5325427,21.806272 30.4775427,22.571272 32.5245427,22.529272 C34.2775427,22.529272 35.7545427,21.950272 36.5775427,20.941272 L36.6825427,20.811272 L36.7525427,20.964272 C37.1795427,21.911272 37.9185427,22.454272 38.7815427,22.454272 C40.1335427,22.451272 41.2355427,21.348272 41.2405427,19.997272 L41.2405427,9.80027199 C41.2355427,8.44827199 40.1335427,7.34527199 38.7805427,7.34127199 L38.7805427,7.34127199 Z" id="Fill-4" fill="#FFFFFF"></path>
                <path d="M52.1215427,7.49227199 C51.6575427,7.39427199 51.1845427,7.34927199 50.7145427,7.36027199 C49.9345427,7.36027199 48.6275427,7.81827199 47.5935427,8.82627199 L47.4505427,8.96527199 L47.4185427,8.76727199 C47.2645427,7.81427199 46.4265427,7.10227199 45.4625427,7.10227199 L45.4365427,7.10227199 C44.0845427,7.10527199 42.9815427,8.20827199 42.9785427,9.55927199 L42.9785427,20.081272 C42.9775427,20.138272 42.9775427,20.193272 42.9785427,20.247272 C43.0225427,21.575272 44.1175427,22.625272 45.4355427,22.625272 C45.4635427,22.625272 45.4905427,22.625272 45.5185427,22.624272 C46.8735427,22.579272 47.9395427,21.440272 47.8945427,20.085272 L47.8945427,15.654272 C47.8695427,14.703272 48.0645427,13.047272 49.6515427,12.678272 C50.2235427,12.581272 50.8005427,12.538272 51.3715427,12.552272 L51.6375427,12.552272 C52.0215427,12.551272 52.4025427,12.459272 52.7455427,12.286272 C51.8475427,10.903272 51.8815427,9.11627199 52.8315427,7.76927199 C52.6135427,7.63327199 52.3755427,7.54027199 52.1215427,7.49227199" id="Fill-6" fill="#FFFFFF"></path>
                <path d="M61.6811427,7.65637199 L61.3431427,7.65637199 L61.3431427,6.51537199 C61.3451427,6.45837199 61.3451427,6.40437199 61.3431427,6.35037199 C61.3221427,5.69337199 61.0451427,5.08537199 60.5661427,4.63537199 C60.0861427,4.18637199 59.4621427,3.95037199 58.8041427,3.97237199 C58.1481427,3.99537199 57.5381427,4.27037199 57.0901427,4.75137199 C56.6411427,5.23037199 56.4061427,5.85537199 56.4281427,6.51237199 L56.4281427,7.65637199 L56.1621427,7.65637199 L56.1501427,7.65637199 C55.7231427,7.65637199 55.3041427,7.76937199 54.9371427,7.98537199 C54.6991427,8.12437199 54.4871427,8.29937199 54.3061427,8.50737199 C53.9181427,8.95337199 53.7041427,9.52437199 53.7021135,10.115372 C53.7001427,10.522372 53.8011427,10.927372 53.9941427,11.284372 L54.0091427,11.312372 C54.0221427,11.339372 54.0451427,11.386372 54.0581427,11.405372 C54.0831427,11.425372 54.0991427,11.450372 54.1071427,11.474372 C54.1641427,11.563372 54.2281427,11.648372 54.2971427,11.726372 L54.3161427,11.748372 C54.3891427,11.838372 54.4711427,11.919372 54.5591427,11.991372 C54.7021427,12.103372 54.8571427,12.206372 55.0181427,12.294372 C55.3661427,12.470372 55.7621427,12.559372 56.1501427,12.560372 L56.3131427,12.560372 L56.4161427,12.560372 L56.4161427,20.397372 C56.4591427,21.683372 57.5031427,22.727372 58.7931427,22.770372 C60.1541427,22.819372 61.2871427,21.749372 61.3321427,20.393372 L61.3321427,12.552372 L61.7341427,12.552372 L61.7431427,12.569372 C63.0041427,12.495372 64.0161427,11.464372 64.0571427,10.195372 C64.0791427,9.53937199 63.8441427,8.91337199 63.3951427,8.43337199 C62.9471427,7.95437199 62.3371427,7.67737199 61.6811427,7.65637199" id="Fill-8" fill="#FFFFFF"></path>
            </g>
        </g>
    </g>
</svg>